# xmcd CD database file
#
# Track frame offsets:
#	150
#	23646
#	40488
#	61016
#	82039
#	95093
#	110245
#	122665
#	147930
#	173244
#	190200
#	210286
#	225107
#	243235
#	265293
#	282419
#	303049
#	318420
#
# Disc length: 4554 seconds
#
# Revision: 0
# Processed by: cddbd v1.5.2PL0 Copyright (c) Steve Scherf et al.
# Submitted via: CDex 1.51
#
DISCID=f411c812
DTITLE=Julia Fordham - Songbook: Julia Fordham
DYEAR=2007
DGENRE=Jazz
TTITLE0=Falling Forward
TTITLE1=Happy Ever After
TTITLE2=Love Moves In ( Mysterious Ways )
TTITLE3=Girlfriend
TTITLE4=Lovin' You
TTITLE5=Something Right
TTITLE6=Invisible War
TTITLE7=Melt
TTITLE8=Porcelain
TTITLE9=The Naked Truth
TTITLE10=Where Does The Time Go
TTITLE11=Someone To Watch Over Me
TTITLE12=Concrete Love
TTITLE13=One Of The Boys
TTITLE14=Towerblock
TTITLE15=Loves Moves In (Mysterious Ways piano)
TTITLE16=Invisible War (Live)
TTITLE17=Girlfriend (Live)
EXTD=YEAR: 2007
EXTT0=
EXTT1=
EXTT2=
EXTT3=
EXTT4=
EXTT5=
EXTT6=
EXTT7=
EXTT8=
EXTT9=
EXTT10=
EXTT11=
EXTT12=
EXTT13=
EXTT14=
EXTT15=
EXTT16=
EXTT17=
PLAYORDER=
